<?xml version="1.0" encoding="UTF-8"?>
<svg width="1002px" height="276px" viewBox="0 0 1002 276" version="1.1" xmlns="http://www.w3.org/2000/svg" xmlns:xlink="http://www.w3.org/1999/xlink">
    <title>pokemol__brand</title>
    <g id="页面-1" stroke="none" stroke-width="1" fill="none" fill-rule="evenodd">
        <g id="pokemol__brand" fill-rule="nonzero">
            <path d="M298.65,196.36 C295.1,196.36 293.54,194.8 293.54,191.25 L293.54,99.25 C293.54,95.7 295.1,94.14 298.65,94.14 L342.08,94.14 C367.91,94.14 375.57,105.36 375.57,121.82 L375.57,140 C375.57,156.47 367.91,167.68 342.08,167.68 L325.75,167.68 L325.75,191.24 C325.75,194.79 324.19,196.35 320.64,196.35 L298.65,196.36 Z M325.47,142.14 L338.24,142.14 C343.78,142.14 344.91,138.88 344.91,135.19 L344.91,127.67 C344.91,123.98 343.78,120.67 338.24,120.67 L325.47,120.67 L325.47,142.14 Z" id="形状" fill="#000000"></path>
            <path d="M432.9,198.49 C397.42,198.49 388.77,186.85 388.77,169.49 L388.77,121.14 C388.77,103.82 397.42,92.04 432.9,92.04 C468.38,92.04 476.9,103.82 476.9,121.14 L476.9,169.53 C476.9,186.85 468.38,198.49 432.9,198.49 Z M432.9,171.1 C443.26,171.1 444.83,168.26 444.83,164.42 L444.83,126.25 C444.83,122.56 443.26,119.72 432.9,119.72 C422.69,119.72 420.98,122.56 420.98,126.25 L420.98,164.42 C421,168.26 422.69,171.1 432.9,171.1 L432.9,171.1 Z" id="形状" fill="#000000"></path>
            <path d="M500,196.36 C496.45,196.36 494.89,194.8 494.89,191.25 L494.89,99.25 C494.89,95.7 496.45,94.14 500,94.14 L522,94.14 C525.55,94.14 527.11,95.7 527.11,99.25 L527.11,131.89 L532.79,131.89 L547.4,98.83 C548.82,95.42 550.81,94.14 554.5,94.14 L576.36,94.14 C579.62,94.14 580.76,95.85 579.48,98.83 L565,131.92 C575.65,132.49 582.46,139.92 582.46,151.23 L582.46,191.23 C582.46,194.78 580.9,196.34 577.35,196.34 L555.52,196.34 C551.98,196.34 550.42,194.78 550.42,191.23 L550.42,163.57 C550.42,160.45 548.85,158.75 545.87,158.75 L527.14,158.75 L527.14,191.25 C527.14,194.8 525.58,196.36 522.03,196.36 L500,196.36 Z" id="路径" fill="#000000"></path>
            <path d="M605.9,196.36 C602.36,196.36 600.8,194.8 600.8,191.25 L600.8,99.25 C600.8,95.7 602.36,94.14 605.9,94.14 L671.76,94.14 C675.3,94.14 676.87,95.7 676.87,99.25 L676.87,115.86 C676.87,119.4 675.3,120.97 671.76,120.97 L632.59,120.97 L632.59,131.89 L660.26,131.89 C663.81,131.89 665.37,133.46 665.37,137 L665.37,152.19 C665.37,155.74 663.81,157.3 660.26,157.3 L632.59,157.3 L632.59,169.5 L671.76,169.5 C675.3,169.5 676.87,171.07 676.87,174.61 L676.87,191.22 C676.87,194.77 675.3,196.33 671.76,196.33 L605.9,196.36 Z M616.69,89.49 C613.43,89.92 611.87,88.07 611.87,84.81 L611.87,71.18 C611.87,67.63 613.43,66.5 616.97,66.07 L666.51,60 C669.77,59.57 671.33,61.42 671.33,64.68 L671.33,78.31 C671.33,81.86 669.77,82.99 666.22,83.42 L616.69,89.49 Z" id="形状" fill="#000000"></path>
            <path d="M698.72,196.36 C695.17,196.36 693.61,194.8 693.61,191.25 L693.61,99.25 C693.61,95.7 695.17,94.14 698.72,94.14 L721.57,94.14 C724.57,94.14 726.39,95.28 728.1,98.4 L740.87,121.53 C741.87,123.24 742.29,123.95 743.43,123.95 L744.7,123.95 C745.84,123.95 746.26,123.24 747.26,121.53 L759.89,98.4 C761.59,95.28 763.44,94.14 766.42,94.14 L789.42,94.14 C792.97,94.14 794.53,95.7 794.53,99.25 L794.53,191.25 C794.53,194.8 792.97,196.36 789.42,196.36 L767.55,196.36 C763.86,196.36 762.44,194.8 762.44,191.25 L762.44,141.25 L754.07,156.72 C752.37,159.98 750.24,161.26 746.55,161.26 L740.87,161.26 C737.18,161.26 735.05,159.98 733.35,156.72 L725,141.29 L725,191.29 C725,194.84 723.44,196.4 719.89,196.4 L698.72,196.36 Z" id="路径" fill="#000000"></path>
            <path d="M856.68,198.49 C821.2,198.49 812.54,186.85 812.54,169.49 L812.54,121.14 C812.54,103.82 821.2,92.04 856.68,92.04 C892.16,92.04 900.68,103.82 900.68,121.14 L900.68,169.53 C900.68,186.85 892.16,198.49 856.68,198.49 Z M856.68,171.1 C867.04,171.1 868.6,168.26 868.6,164.42 L868.6,126.25 C868.6,122.56 867.04,119.72 856.68,119.72 C846.32,119.72 844.76,122.56 844.76,126.25 L844.76,164.42 C844.76,168.26 846.46,171.1 856.68,171.1 L856.68,171.1 Z" id="形状" fill="#000000"></path>
            <path d="M923.81,196.36 C920.26,196.36 918.7,194.8 918.7,191.25 L918.7,99.25 C918.7,95.7 920.26,94.14 923.81,94.14 L945.81,94.14 C949.35,94.14 950.92,95.7 950.92,99.25 L950.92,169.5 L970.36,169.5 L970.36,146.5 C970.36,142.95 971.92,141.39 975.47,141.39 L996.05,141.39 C999.59,141.39 1001.16,142.95 1001.16,146.5 L1001.16,191.21 C1001.16,194.76 999.59,196.32 996.05,196.32 L923.81,196.36 Z" id="路径" fill="#000000"></path>
            <polygon id="路径" fill="#000000" points="8.31 144.26 24.02 135.8 9.81 125.01 26.64 119.11 14.31 106.22 31.86 103.04 21.7 88.38 39.54 88 31.81 71.92 49.49 74.33 44.36 57.24 61.44 62.38 59.03 44.7 75.11 52.43 75.49 34.6 90.15 44.75 93.33 27.2 106.22 39.54 112.12 22.7 122.91 36.91 131.37 21.2 139.82 36.91 150.61 22.7 156.52 39.54 169.4 27.2 172.58 44.75 187.25 34.6 187.63 52.44 203.71 44.7 201.29 62.38 218.38 57.25 213.25 74.33 230.93 71.92 223.19 88 241.03 88.38 230.87 103.05 248.43 106.22 236.09 119.11 252.92 125.01 238.71 135.8 254.42 144.26 238.71 152.72 252.92 163.5 236.09 169.41 248.43 182.3 230.87 185.47 241.03 200.14 223.19 200.52 230.92 216.6 213.25 214.19 218.38 231.27 201.29 226.14 203.7 243.82 187.63 236.08 187.25 253.92 172.58 243.76 169.4 261.32 156.52 248.98 150.61 265.82 139.82 251.61 131.37 267.31 122.91 251.61 112.12 265.82 106.22 248.98 93.33 261.32 90.15 243.76 75.48 253.92 75.1 236.08 59.03 243.81 61.44 226.14 44.35 231.27 49.48 214.18 31.81 216.6 39.54 200.52 21.7 200.14 31.86 185.47 14.3 182.29 26.64 169.41 9.81 163.5 24.02 152.72"></polygon>
            <path d="M131.37,275.43 L122.37,258.69 L110.87,273.84 L104.57,255.89 L90.83,269.05 L87.44,250.32 L71.8,261.15 L71.4,242.15 L54.26,250.39 L56.83,231.55 L38.61,237 L44.08,218.79 L25.24,221.36 L33.49,204.23 L14.49,203.82 L25.3,188.19 L6.58,184.8 L19.74,171.06 L1.79,164.77 L16.93,153.27 L0.2,144.27 L16.93,135.27 L1.79,123.77 L19.74,117.47 L6.58,103.71 L25.3,100.32 L14.47,84.68 L33.47,84.28 L25.25,67.14 L44.08,69.71 L38.62,51.5 L56.82,57 L54.25,38.17 L71.39,46.41 L71.79,27.41 L87.43,38.24 L90.82,19.52 L104.56,32.68 L110.86,14.68 L122.36,29.83 L131.36,13.09 L140.36,29.83 L151.85,14.68 L158.15,32.68 L171.89,19.52 L175.28,38.24 L190.92,27.41 L191.33,46.41 L208.46,38.17 L205.91,57 L224.12,51.53 L218.65,69.74 L237.49,67.17 L229.25,84.3 L248.25,84.71 L237.42,100.35 L256.15,103.73 L243,117.46 L261,123.75 L245.85,135.25 L262.58,144.25 L245.85,153.25 L261,164.77 L243,171.06 L256.16,184.8 L237.44,188.19 L248.27,203.84 L229.27,204.24 L237.51,221.38 L218.67,218.81 L224.14,237.01 L205.93,231.54 L208.5,250.38 L191.36,242.14 L190.96,261.14 L175.3,250.33 L171.91,269.05 L158.17,255.89 L151.87,273.84 L140.38,258.69 L131.37,275.43 Z M123.46,244.52 L131.37,259.2 L139.27,244.52 L149.35,257.79 L154.86,242.07 L166.86,253.59 L169.86,237.2 L183.55,246.69 L183.91,230.03 L198.91,237.25 L196.65,220.74 L212.65,225.53 L207.85,209.53 L224.37,211.78 L217.15,196.78 L233.8,196.43 L224.32,182.73 L240.71,179.73 L229.19,167.73 L244.91,162.21 L231.64,152.14 L246.32,144.23 L231.64,136.32 L244.91,126.24 L229.19,120.73 L240.71,108.73 L224.32,105.73 L233.81,92.03 L217.15,91.68 L224.37,76.68 L207.84,79 L212.64,63 L196.64,67.79 L198.89,51.28 L183.89,58.5 L183.54,41.84 L169.84,51.33 L166.84,34.93 L154.84,46.45 L149.32,30.73 L139.27,44 L131.37,29.32 L123.46,44 L113.38,30.72 L107.87,46.44 L95.87,34.92 L92.87,51.31 L79.18,41.83 L78.83,58.49 L63.83,51.26 L66.08,67.78 L50.08,62.98 L54.88,78.98 L38.36,76.73 L45.59,91.73 L28.93,92.08 L38.41,105.77 L22.02,108.77 L33.54,120.77 L17.82,126.28 L31.1,136.36 L16.41,144.27 L31.1,152.18 L17.83,162.24 L33.55,167.76 L22,179.78 L38.39,182.78 L28.91,196.48 L45.57,196.83 L38.34,211.83 L54.86,209.58 L50.06,225.58 L66.06,220.79 L63.8,237.3 L78.8,230.08 L79.16,246.74 L92.85,237.25 L95.85,253.64 L107.85,242.12 L113.36,257.84 L123.46,244.52 Z" id="形状" fill="#000000"></path>
            <circle id="椭圆形" fill="#E81858" cx="131.37" cy="144.26" r="110.24"></circle>
            <path d="M131,228.86 C152.79,228.86 172,222.45 190,209.63 C215.66,191.31 213.07,163.49 190,173.74 C182.14,177.23 165,192.97 131,192.97 L131.34,192.97 C97.34,192.97 80.23,177.23 72.34,173.74 C49.27,163.49 46.69,191.31 72.34,209.63 C90.29,222.45 109.52,228.86 131.34,228.86" id="路径" fill="#AA174C"></path>
            <path d="M131.37,231.42 L131,231.42 C109,231.36 89.35,224.91 70.88,211.72 C57.59,202.22 47.07,185.29 53.25,174.48 C56.68,168.48 64.25,167.31 73.41,171.4 C75.5572776,172.443719 77.6379193,173.619299 79.64,174.92 C89.08,180.7 104.86,190.36 131.17,190.4 C157.48,190.44 173.25,180.7 182.69,174.92 C184.717973,173.6164 186.825412,172.440776 189,171.4 C198.19,167.31 205.73,168.46 209.16,174.48 C215.34,185.29 204.82,202.22 191.53,211.72 C173.06,224.91 153.39,231.36 131.42,231.42 L131.37,231.42 Z M63.52,174.09 C60.84,174.09 58.84,175.09 57.73,177.02 C54.5,182.67 58.32,196.42 73.89,207.55 C91.51,220.13 110.25,226.26 131.2,226.300192 C152.15,226.34 170.88,220.13 188.5,207.55 C204.07,196.42 207.89,182.67 204.66,177.02 C202.66,173.48 197.66,173.14 191.03,176.08 C189.096411,177.046925 187.216957,178.118514 185.4,179.29 C175.52,185.34 159.02,195.45 131.4,195.53 L131,195.53 C103.34,195.45 86.84,185.34 77,179.29 C75.1843355,178.116386 73.3047626,177.044729 71.37,176.08 C68.9170967,174.88643 66.245281,174.209116 63.52,174.09 Z" id="形状" fill="#000000"></path>
            <path d="M131.37,258.34 C68.3653557,258.34 17.29,207.264644 17.29,144.26 C17.29,81.2553557 68.3653557,30.18 131.37,30.18 C194.374644,30.18 245.45,81.2553557 245.45,144.26 C245.372861,207.232665 194.342665,258.262861 131.37,258.34 Z M131.37,37.87 C72.6124255,37.87 24.98,85.5024255 24.98,144.26 C24.98,203.017575 72.6124255,250.65 131.37,250.65 C190.127575,250.65 237.76,203.017575 237.76,144.26 C237.693869,85.5298398 190.10016,37.9361314 131.37,37.87 Z" id="形状" fill="#000000"></path>
            <circle id="椭圆形" fill="#FFFFFF" cx="88.38" cy="125.64" r="30.16"></circle>
            <path d="M88.38,158.36 C75.1410408,158.36 63.205863,150.384508 58.1404674,138.152918 C53.0750717,125.921327 55.8771449,111.842787 65.2399329,102.482859 C74.6027209,93.1229319 88.6821173,90.3251609 100.912159,95.394294 C113.142201,100.463427 121.114045,112.401041 121.110002,125.64 C121.08795,143.705519 106.445525,158.34347 88.38,158.36 L88.38,158.36 Z M88.38,98.04 C73.1369409,98.04 60.78,110.396941 60.78,125.64 C60.78,140.883059 73.1369409,153.24 88.38,153.24 C103.623059,153.24 115.980002,140.883059 115.980002,125.64 C115.985529,110.388176 103.631816,98.0165591 88.38,98 L88.38,98.04 Z" id="形状" fill="#000000"></path>
            <circle id="椭圆形" fill="#FFFFFF" cx="173.07" cy="125.64" r="30.16"></circle>
            <path d="M173.07,158.36 C159.831041,158.36 147.895863,150.384508 142.830467,138.152918 C137.765072,125.921327 140.567145,111.842787 149.929933,102.482859 C159.292721,93.1229319 173.372117,90.3251609 185.602159,95.394294 C197.832201,100.463427 205.804045,112.401041 205.800002,125.64 C205.77795,143.705519 191.135525,158.34347 173.07,158.36 Z M173.07,98.04 C157.826941,98.04 145.47,110.396941 145.47,125.64 C145.47,140.883059 157.826941,153.24 173.07,153.24 C188.313059,153.24 200.670002,140.883059 200.670002,125.64 C200.675529,110.388176 188.321816,98.0165591 173.07,98 L173.07,98.04 Z" id="形状" fill="#000000"></path>
            <circle id="椭圆形" fill="#000000" cx="88.38" cy="130.24" r="17.95"></circle>
            <circle id="椭圆形" fill="#000000" cx="173.07" cy="130.24" r="17.95"></circle>
            <path d="M131.37,193 L122.37,212.91 L115.86,194.28 L104.6,209.66 L99,189.12 L73.65,226.3 L78.71,177.3 C78.71,177.3 102.51,193 131.37,193 Z" id="路径" fill="#FFFFFF"></path>
            <path d="M72.77,227.61 L76.59,172.88 L80.12,175.2 C86.1282855,178.872625 92.4943411,181.924981 99.12,184.31 L100.42,184.78 C105.630027,186.633109 110.980593,188.064386 116.42,189.06 L116.6,188.8 L116.71,189.11 C121.47736,189.953857 126.308554,190.385453 131.15,190.4 L135.25,190.4 L122,219.79 L115,199.7 L103.48,215.43 L98,195.15 L72.77,227.61 Z M80.85,181.61 L78.3,214.22 L96.16,188.72 C90.8884954,186.730362 85.7712276,184.353891 80.85,181.61 L80.85,181.61 Z M118.73,194.61 L122.73,205.95 L127.47,195.43 C124.46,195.31 121.55,195 118.73,194.63 L118.73,194.61 Z M102.11,190.77 L105.69,203.82 L113.14,193.64 C109.414604,192.889709 105.732551,191.938317 102.11,190.79 L102.11,190.77 Z" id="形状" fill="#000000"></path>
            <path d="M131.37,228.86 L122.37,212.86 L112.83,227.56 L104.28,209.61 L93.76,221.45 C93.76,221.45 106.23,228.86 131.37,228.86 Z" id="路径" fill="#FFFFFF"></path>
            <path d="M111,229.67 C99,227.44 92.84,223.89 92.47,223.67 L89.8,222.08 L105,205 L113.25,222.3 L122.6,207.89 L135.8,231.38 L131.42,231.38 C125.674383,231.398168 119.935324,230.990384 114.25,230.16 L111,229.67 Z M117.3,225.44 C120.22,225.81 123.44,226.09 126.94,226.22 L122.23,217.83 L117.3,225.44 Z M98,220.62 C101.325248,221.972161 104.757041,223.04585 108.26,223.83 L103.68,214.22 L98,220.62 Z" id="形状" fill="#000000"></path>
            <path d="M130.71,193 L139.71,212.91 L146.22,194.28 L157.48,209.66 L163.12,189.15 L188.45,226.33 L183.39,177.33 C183.39,177.33 159.57,193 130.71,193 Z" id="路径" fill="#FFFFFF"></path>
            <path d="M188.42,227.61 L164.09,195.15 L158.52,215.43 L147,199.7 L140,219.79 L126.74,190.4 L130.74,190.4 C135.62058,190.371764 140.490482,189.940296 145.3,189.11 L145.6,189.06 C151.056331,188.066998 156.42372,186.635694 161.65,184.78 L162.94,184.31 C169.566784,181.927672 175.933108,178.875187 181.94,175.2 L185.47,172.88 L188.42,227.61 Z M165.92,188.72 L184,214.22 L181.26,181.61 C176.327072,184.351261 171.200029,186.727616 165.92,188.72 L165.92,188.72 Z M134.64,195.45 L139.38,206 L143.38,194.66 C140.52,195 137.61,195.31 134.64,195.45 L134.64,195.45 Z M148.94,193.66 L156.39,203.84 L160,190.79 C156.367614,191.944818 152.675585,192.902876 148.94,193.66 L148.94,193.66 Z" id="形状" fill="#000000"></path>
            <path d="M130.71,228.86 L139.71,212.86 L149.26,227.56 L157.8,209.61 L168.32,221.45 C168.32,221.45 155.84,228.86 130.71,228.86 Z" id="路径" fill="#FFFFFF"></path>
            <path d="M147.87,230.2 C142.188038,231.030439 136.452298,231.438225 130.71,231.42 L126.33,231.42 L139.52,207.93 L148.88,222.34 L157.12,205.04 L172.27,222.04 L169.6,223.63 C169.24,223.85 163.11,227.4 151.07,229.63 L147.87,230.2 Z M139.87,217.83 L135.16,226.22 C138.67,226.09 141.88,225.81 144.81,225.44 L139.87,217.83 Z M158.45,214.22 L153.88,223.83 C157.382133,223.042767 160.813674,221.969157 164.14,220.62 L158.45,214.22 Z" id="形状" fill="#000000"></path>
            <path d="M109.58,168.61 C113.678046,170.170734 118.007072,171.039242 122.39,171.18" id="路径" fill="#000000"></path>
            <path d="M122.39,175 C117.517354,174.86126 112.703072,173.901108 108.15,172.16 C106.172821,171.372994 105.207994,169.132179 105.995,167.155 C106.782006,165.177821 109.022821,164.212994 111,165 C114.647642,166.37497 118.49439,167.148372 122.39,167.29 C123.810472,167.217535 125.155179,167.934128 125.887163,169.153632 C126.619146,170.373137 126.619146,171.896863 125.887163,173.116368 C125.155179,174.335872 123.810472,175.052465 122.39,174.98 L122.39,175 Z" id="路径" fill="#000000"></path>
            <path d="M150.59,168.61 C146.491542,170.169305 142.162757,171.037765 137.78,171.18" id="路径" fill="#000000"></path>
            <path d="M137.78,175 C136.359528,175.072465 135.014821,174.355872 134.282837,173.136368 C133.550854,171.916863 133.550854,170.393137 134.282837,169.173632 C135.014821,167.954128 136.359528,167.237535 137.78,167.31 C141.67634,167.158805 145.522618,166.378743 149.17,165 C151.141657,164.212994 153.377994,165.173344 154.165,167.145 C154.952006,169.116657 153.991657,171.352994 152.02,172.14 C147.467742,173.886654 142.653644,174.853531 137.78,175 L137.78,175 Z" id="路径" fill="#000000"></path>
            <path d="M41.64,159.000004 C41.0489662,159.001035 40.4760731,158.795925 40.02,158.42 C38.9230375,157.524175 38.7575675,155.909724 39.65,154.81 C49.79,142.42 67.05,146.14 74.76,149.81 C76.0357777,150.420275 76.5752745,151.949222 75.9649998,153.225 C75.3547252,154.500778 73.8257778,155.040275 72.55,154.43 C69.053558,152.901803 65.3440435,151.917096 61.55,151.51 C53.83,150.73 47.78,152.92 43.6,158.03 C43.1264327,158.632433 42.4062034,158.988873 41.64,159.000004 L41.64,159.000004 Z" id="路径" fill="#000000"></path>
            <path d="M220.44,158.36 C219.665776,158.363921 218.931041,158.018596 218.44,157.42 C208.3,145.03 189.71,153.74 189.52,153.83 C188.684281,154.293601 187.660335,154.255179 186.861708,153.730253 C186.063082,153.205327 185.62169,152.280602 185.715802,151.329553 C185.809913,150.378504 186.423982,149.558222 187.31,149.2 C195.01,145.5 212.31,141.79 222.41,154.2 C223.044219,154.967963 223.17545,156.034058 222.746407,156.932903 C222.317364,157.831748 221.405941,158.400156 220.41,158.39 L220.44,158.36 Z" id="路径" fill="#000000"></path>
            <path d="M150.36,52.87 C149.505177,48.9717984 150.530921,44.8984463 153.13,41.87 L185.13,4.57 C186.396604,3.1790749 188.433617,2.80003554 190.115758,3.64226963 C191.7979,4.48450371 192.714821,6.34255306 192.36,8.19 L193,58.41 C193.080946,64.527202 188.51785,69.7125386 182.44,70.41 C169.21,71.92 153.8,68.58 150.36,52.87 Z" id="路径" fill="#E81858"></path>
            <path d="M176.6,73.3301651 C161.2,73.3301651 150.6,66.14 147.85,53.42 L147.85,53.42 C146.837488,48.7304165 148.072856,43.8370248 151.19,40.19 L183.19,2.89 C185.176753,0.652825244 188.397809,-0.0121888979 191.108117,1.2552379 C193.818425,2.5226647 195.37315,5.42098706 194.93,8.38 L195.59,58.38 C195.734032,65.8366091 190.172168,72.1744471 182.76,73 C180.714433,73.224863 178.657883,73.3350354 176.6,73.3301651 L176.6,73.3301651 Z M188.21,5.73 C187.757894,5.73146374 187.329583,5.93280634 187.04,6.28 L155.04,43.53 C152.966983,45.9520567 152.145655,49.2040703 152.82,52.32 L152.82,52.32 C154.03,57.86 159.33,70.45 182.14,67.87 C186.919879,67.3391861 190.510985,63.2585809 190.43,58.45 L189.81,8 L189.86,7.74 C190.027055,7.01826867 189.663482,6.27858574 188.99,5.97 C188.75166,5.83166478 188.48488,5.74957852 188.21,5.73 L188.21,5.73 Z" id="形状" fill="#000000"></path>
            <path d="M111.84,52.87 C112.685703,48.9703277 111.656926,44.8996259 109.06,41.87 L77.06,4.57 C75.7933959,3.1790749 73.7563831,2.80003554 72.0742415,3.64226963 C70.3920999,4.48450371 69.4751785,6.34255306 69.83,8.19 L69.17,58.42 C69.0890538,64.537202 73.65215,69.7225386 79.73,70.42 C93,71.92 108.39,68.58 111.84,52.87 Z" id="路径" fill="#E81858"></path>
            <path d="M85.6,73.33 C83.5382228,73.3253642 81.4783259,73.2051758 79.43,72.97 C72.0294819,72.1454587 66.4716431,65.8252038 66.6,58.38 L67.25,8.38 C66.7707403,5.40638926 68.3166237,2.47441885 71.0409771,1.18991524 C73.7653304,-0.0945883803 77.0108582,0.578282643 79,2.84 L111,40.19 C114.117144,43.8370248 115.352512,48.7304165 114.34,53.42 L114.34,53.42 C111.55,66.14 101,73.33 85.6,73.33 Z M74,5.71999041 C73.721061,5.72081058 73.4465041,5.78944979 73.2,5.92 C72.5197066,6.22215216 72.1502645,6.9652346 72.32,7.69 L72.32,7.95 L71.66,58.45 C71.5815255,63.275801 75.2002496,67.3631369 80,67.87 C102.83,70.45 108.11,57.87 109.32,52.32 L109.32,52.32 C109.994345,49.2040703 109.173017,45.9520567 107.1,43.53 L75.1,6.23 C74.8271164,5.90527454 74.4241576,5.71844819 74,5.71999041 Z" id="形状" fill="#000000"></path>
        </g>
    </g>
</svg>